<svg version="1.2" xmlns="http://www.w3.org/2000/svg" viewBox="0 0 40 43" width="40" height="43">
	<title>hawk_logo_color-svg</title>
	<defs>
		<linearGradient id="g1" x1="13.4" y1="29.4" x2="20.4" y2="26.6" gradientUnits="userSpaceOnUse">
			<stop offset="0" stop-color="#0f4898" stop-opacity="0"/>
			<stop offset="1" stop-color="#0f4898"/>
		</linearGradient>
		<linearGradient id="g2" x1="18.8" y1="20.7" x2="13.8" y2=".8" gradientUnits="userSpaceOnUse">
			<stop offset="0" stop-color="#0f4898"/>
			<stop offset="1" stop-color="#0f4898" stop-opacity="0"/>
		</linearGradient>
	</defs>
	<style>
		.s0 { fill: #0f4898 } 
		.s1 { fill: url(#g1) } 
		.s2 { fill: url(#g2) } 
	</style>
	<g id="Layer">
		<g id="Layer">
			<g id="Layer">
			</g>
		</g>
		<g id="Layer">
			<g id="Layer">
				<path id="Layer" fill-rule="evenodd" class="s0" d="m37.7 21.8c0 9.6-7.8 17.4-17.4 17.4-9.6 0-17.4-7.8-17.4-17.4 0-3.8 1.3-7.4 3.4-10.3-0.5-2.3-1.1-5.2-1.5-7.8l-0.1-0.8 4.5 2.6-0.4-3.4 4.9 3.8c2-0.8 4.2-1.3 6.5-1.3 9.6 0 17.5 7.6 17.5 17.2zm-4.3 0.7l-0.2-0.6v-0.4l-3-2.3-2.2-0.1-4 0.3-3.5-7.9-11.2-8.5 0.4 3.3-4.5-2.5c0 0 1.9 11.9 3 12.2 1.1 0.3 7.7 2.4 7.7 2.4 0 0-4.2-0.2-7.1-0.5 0.9 4.1 3.2 5.7 3.2 5.7l5.4-0.5c0 0-3.5 1.3-4.5 1.7 0.6 0.8 2.4 1.8 2.4 1.8l1.7 0.3c-0.5 0.4-0.8 0.8-0.8 0.8l-3.1 0.9c-0.1 0-0.1 0.2 0 0.2l4.1 0.2c0.1-0.1 1.1-0.5 2.5-1l3.5 3.4v0.4l0.5-0.1 0.9 0.6-0.3-0.9 1.1-0.4 2 0.1-1.9-0.6-1.9 0.5-0.3-0.3-0.7-1.7 1.4-3c0 0 4.6-3.8 4.9-3.8h1.2c0.4 0 0.8 0.2 1.1 0.4l1 0.7v0.1l-0.2 0.3 1.3-0.7c0.2-0.1 0.2-0.3 0.1-0.5z"/>
				<path id="Layer" class="s0" d="m32.7 21.8c0 0 0 0.1-0.1 0.1 0 0-0.4-0.3-0.5-0.3 0 0 0 0-0.2-0.3 0-0.1 0.1-0.1 0.2 0 0 0 0.3 0.2 0.6 0.5z"/>
			</g>
			<path id="Layer" class="s1" d="m19 27.1l0.7 0.8c-1.4 0.6-2.4 1-2.5 1l-4.1-0.2c-0.1 0-0.1-0.2 0-0.2l3.1-0.9c0 0 0.4-0.3 0.8-0.8z"/>
			<path id="Layer" class="s2" d="m19.5 11.7l-9.8-5.5-0.4-3.2 11.2 8.5 3.5 7.9-0.4 0.1z"/>
		</g>
	</g>
</svg>